<?xml version="1.0" encoding="UTF-8"?><svg id="Layer_1" xmlns="http://www.w3.org/2000/svg" viewBox="0 0 125 24"><defs><style>.cls-1{fill:#007fff;}.cls-1,.cls-2,.cls-3{fill-rule:evenodd;}.cls-1,.cls-2,.cls-3,.cls-4{stroke-width:0px;}.cls-2{fill:#4da5ff;}.cls-3{fill:#cce5ff;}.cls-4{fill:#02002d;}</style></defs><path class="cls-4" d="m50.1,10.37c1.65.37,2.94.89,3.87,1.55.95.64,1.42,1.66,1.42,3.04s-.52,2.55-1.55,3.31c-1.02.77-2.46,1.15-4.34,1.15-2.28,0-3.96-.45-5.05-1.36-1.09-.91-1.67-2.11-1.74-3.6h3.95c.12,1.35,1.02,2.03,2.68,2.03.6,0,1.05-.1,1.37-.29.32-.2.47-.49.47-.88,0-.48-.21-.83-.63-1.04-.42-.21-1.16-.43-2.21-.64l-.55-.13c-1.46-.32-2.62-.78-3.5-1.39-.88-.61-1.32-1.55-1.32-2.83,0-.84.23-1.58.68-2.24.47-.66,1.15-1.17,2.03-1.55.89-.39,1.96-.59,3.18-.59,2.02,0,3.52.44,4.52,1.31,1,.87,1.53,1.98,1.6,3.31h-3.95c-.07-.57-.27-.99-.6-1.25-.32-.28-.81-.43-1.47-.43-.58,0-1.03.1-1.34.29-.3.2-.45.46-.45.8,0,.37.14.64.42.8.3.14.88.3,1.74.48l.76.16Z"/><path class="cls-4" d="m56.88,5.32v18.3h4.21v-5.99h.05c.32.44.82.85,1.53,1.23.7.37,1.49.56,2.37.56,1.19,0,2.23-.29,3.1-.88.88-.59,1.55-1.42,2.03-2.51.49-1.1.74-2.39.74-3.87s-.25-2.76-.74-3.84c-.47-1.1-1.15-1.95-2.03-2.54-.88-.59-1.91-.88-3.1-.88-.88,0-1.67.19-2.37.56-.7.37-1.21.78-1.53,1.23h-.05v-1.36h-4.21Zm7.05,10.89c-.88,0-1.56-.35-2.05-1.04-.47-.69-.71-1.7-.71-3.02s.24-2.32.71-3.02c.49-.69,1.17-1.04,2.05-1.04s1.55.35,2.03,1.04c.49.69.74,1.7.74,3.02s-.25,2.32-.74,3.02c-.47.69-1.15,1.04-2.03,1.04Z"/><path class="cls-4" d="m80,5.08c.46,0,.84.04,1.16.11v3.74h-.05c-.26-.05-.53-.08-.82-.08-1,0-1.86.33-2.58.99-.7.66-1.05,1.59-1.05,2.8v6.35h-4.21V5.32h4.21v2.24h.05c.33-.78.78-1.39,1.34-1.82.58-.44,1.23-.67,1.95-.67Z"/><path class="cls-4" d="m95.46,5.32v13.67h-4.21v-1.98h-.05c-.91,1.6-2.38,2.4-4.42,2.4-1.33,0-2.39-.43-3.18-1.28-.79-.85-1.18-2.05-1.18-3.58V5.32h4.21v7.88c0,1,.17,1.71.5,2.14.35.41.89.61,1.6.61,1.68,0,2.53-.91,2.53-2.72v-7.9h4.21Z"/><path class="cls-4" d="m106.22,10.42c-.07-.66-.3-1.21-.68-1.66-.37-.44-.94-.67-1.71-.67-.86,0-1.53.36-2,1.07-.47.71-.71,1.71-.71,2.99s.23,2.31.68,3.02c.47.69,1.15,1.04,2.03,1.04,1.42,0,2.22-.79,2.39-2.38h4.13c-.07,1.09-.38,2.06-.92,2.91-.54.84-1.3,1.5-2.26,1.98-.95.46-2.05.69-3.31.69-1.4,0-2.63-.3-3.68-.91-1.03-.62-1.84-1.48-2.42-2.56-.56-1.1-.84-2.37-.84-3.79s.28-2.66.84-3.76c.56-1.1,1.36-1.96,2.39-2.56,1.03-.62,2.24-.93,3.6-.93,1.91,0,3.45.52,4.6,1.55,1.16,1.01,1.82,2.34,2,3.98h-4.13Z"/><path class="cls-4" d="m118.22,16.22c.67,0,1.19-.12,1.58-.37.39-.27.66-.6.82-.99h4.18c-.39,1.42-1.12,2.55-2.21,3.36-1.09.8-2.52,1.2-4.29,1.2-1.47,0-2.75-.3-3.84-.91-1.07-.62-1.89-1.48-2.47-2.56-.58-1.1-.87-2.37-.87-3.79s.28-2.63.84-3.74c.56-1.1,1.37-1.97,2.42-2.59,1.05-.62,2.28-.93,3.68-.93,2.25,0,3.96.76,5.16,2.27,1.19,1.51,1.79,3.55,1.79,6.11h-9.68c0,.91.28,1.63.84,2.16.56.52,1.25.77,2.05.77Zm-.16-8.38c-.82,0-1.49.25-2,.75-.49.48-.74,1.18-.74,2.11h5.47c0-.93-.25-1.63-.76-2.11-.49-.5-1.15-.75-1.97-.75Z"/><path class="cls-1" d="m7.33,7.78C3.04,7.78,0,11.7,0,15.89h0v8.11h19.67c4.29,0,7.34-3.93,7.34-8.12h0c-.02-4.18-3.04-8.1-7.35-8.1H7.33Z"/><path class="cls-3" d="m6.27,8.1C6.27,3.8,9.39,0,13.52,0h20.19v8.13c0,4.3-2.95,8.08-7.08,8.08h-13.11c-4.14,0-7.23-3.81-7.25-8.1h0Z"/><path class="cls-2" d="m6.28,7.86c0,.08,0,.16,0,.24h0c.02,4.3,3.11,8.1,7.25,8.1h13.11c.13,0,.25,0,.37-.01,0-.11,0-.21,0-.32h0c-.02-4.18-3.04-8.1-7.35-8.1H7.33c-.36,0-.71.03-1.05.08Z"/></svg>